HIERARCHY
ROOT Hips
{
  OFFSET -0.086373 102.405 0.980158
  CHANNELS 6 Xposition Yposition Zposition Zrotation Xrotation Yrotation
  JOINT Spine
  {
    OFFSET 0 10.1816 0.1315
    CHANNELS 3 Zrotation Xrotation Yrotation
    JOINT Spine1
    {
      OFFSET 0 10.0835 -1.0008
      CHANNELS 3 Zrotation Xrotation Yrotation
      JOINT Spine2
      {
        OFFSET 0 9.1 -1.3734
        CHANNELS 3 Zrotation Xrotation Yrotation
        JOINT Neck
        {
          OFFSET 0 16.6717 -2.5162
          CHANNELS 3 Zrotation Xrotation Yrotation
          JOINT Head
          {
            OFFSET 0 9.6179 1.685
            CHANNELS 3 Zrotation Xrotation Yrotation
            End Site
            {
              OFFSET 0 0 0
            }
          }
        }
        JOINT LeftShoulder
        {
          OFFSET 4.5704 10.946 -2.628
          CHANNELS 3 Zrotation Xrotation Yrotation
          JOINT LeftArm
          {
            OFFSET 10.5924 -0.5246 -2.2321
            CHANNELS 3 Zrotation Xrotation Yrotation
            JOINT LeftForeArm
            {
              OFFSET 27.8415 -0.0001 0
              CHANNELS 3 Zrotation Xrotation Yrotation
              JOINT LeftHand
              {
                OFFSET 28.3288 0 0
                CHANNELS 3 Zrotation Xrotation Yrotation
                End Site
                {
                  OFFSET 0 0 0
                }
              }
            }
          }
        }
        JOINT RightShoulder
        {
          OFFSET -4.57 10.9462 -2.628
          CHANNELS 3 Zrotation Xrotation Yrotation
          JOINT RightArm
          {
            OFFSET -10.5928 -0.5248 -2.2321
            CHANNELS 3 Zrotation Xrotation Yrotation
            JOINT RightForeArm
            {
              OFFSET -27.8415 0 0
              CHANNELS 3 Zrotation Xrotation Yrotation
              JOINT RightHand
              {
                OFFSET -28.3288 0 0.0001
                CHANNELS 3 Zrotation Xrotation Yrotation
                End Site
                {
                  OFFSET 0 0 0
                }
              }
            }
          }
        }
      }
    }
  }
  JOINT LeftUpLeg
  {
    OFFSET 8.2078 -6.7517 -1.5996
    CHANNELS 3 Zrotation Xrotation Yrotation
    JOINT LeftLeg
    {
      OFFSET 0 -44.3705 0.2846
      CHANNELS 3 Zrotation Xrotation Yrotation
      JOINT LeftFoot
      {
        OFFSET 0 -44.4279 -2.9822
        CHANNELS 3 Zrotation Xrotation Yrotation
        JOINT LeftToeBase
        {
          OFFSET 0 -8.7287 10.7106
          CHANNELS 3 Zrotation Xrotation Yrotation
          End Site
          {
            OFFSET 0 0 0
          }
        }
      }
    }
  }
  JOINT RightUpLeg
  {
    OFFSET -8.2078 -6.7517 -1.5996
    CHANNELS 3 Zrotation Xrotation Yrotation
    JOINT RightLeg
    {
      OFFSET 0 -44.3705 0.2862
      CHANNELS 3 Zrotation Xrotation Yrotation
      JOINT RightFoot
      {
        OFFSET 0 -44.4277 -2.9838
        CHANNELS 3 Zrotation Xrotation Yrotation
        JOINT RightToeBase
        {
          OFFSET 0 -8.7287 10.7106
          CHANNELS 3 Zrotation Xrotation Yrotation
          End Site
          {
            OFFSET 0 0 0
          }
        }
      }
    }
  }
}
MOTION
Frames:	14
Frame Time:	0.0333333
-27.9042 98.4433 158.238 3.93652 -14.331 -40.6956 -5.86209 18.3591 -4.23982 -1.98459 2.72044 -1.1728 -1.94674 2.73016 -1.18985 0.610581 -10.4822 -2.21388 5.84791 -0.295546 -22.9963 -11.1196 1.93413 5.86655 -49.5899 10.1726 -16.588 -0.000215741 1.1844e-06 -2.6448 -24.7937 41.6195 9.28405 5.45136 3.25572 9.23898 77.9187 2.07787 10.53 -9.67066e-06 -4.69259e-07 10.752 -7.66906 0.972171 0.0502674 -2.1735 -20.3907 0.498648 -12.2632 68.7066 19.7461 -5.92729 3.11042 4.75284 -5.31665e-06 -6.90942 1.17969e-05 6.48832 -6.07911 1.18166 -2.634 29.6265 -1.15972 -15.7231 -14.4176 7.45511 -1.00069e-06 -6.15369 -9.05806e-06 
-30.8964 99.4669 162.12 6.06013 -12.335 -48.1405 -7.99057 15.3134 -2.46018 -2.47748 1.90012 -0.455414 -2.45888 1.90298 -0.470013 0.633132 -10.318 -2.09013 4.71866 0.0528605 -20.3386 -11.9802 1.81494 6.80769 -52.0016 5.58286 -11.5221 -0.000214531 6.44698e-06 -2.77623 -32.4925 43.1564 20.233 5.09903 3.19958 9.68104 78.2727 2.46584 9.70671 2.5069e-05 1.77268e-06 12.1808 -7.01989 1.59781 -0.111418 -3.67653 -27.7653 -0.45425 -6.15159 60.5611 12.2141 -3.20498 -0.482933 8.07617 5.21693e-06 -5.55844 7.51e-06 3.87307 -4.09454 1.33725 -1.8781 25.435 -1.34611 -14.0581 -16.6648 15.0658 -4.82414e-08 -6.3453 -3.00382e-06 
-34.1763 100.172 165.95 8.12301 -11.0602 -55.3113 -9.87658 12.4794 -0.988612 -2.84796 1.19879 0.175414 -2.84136 1.19302 0.164928 0.665107 -10.2822 -1.94204 3.743 0.0246393 -17.5893 -12.6815 1.67461 7.85537 -53.5103 3.02159 -6.14865 -0.000194638 1.25903e-07 -4.11912 -35.4083 39.6129 25.4324 4.76735 3.14425 10.0986 78.5374 2.68651 8.60049 1.11543e-05 -1.18256e-05 14.6538 -5.715 2.22472 -1.06663 -3.52369 -32.3766 -0.267303 -2.0947 48.7746 7.01692 -1.61337 -2.17864 8.26123 -6.08875e-06 -4.78495 -8.73206e-06 0.837527 -1.61702 0.745052 -1.18412 20.6789 -1.38345 -11.3989 -18.2975 22.3928 -2.81999e-06 -6.90419 -4.85973e-06 
-37.5593 100.375 169.8 9.21457 -10.4672 -61.3435 -11.0083 10.5511 0.0352159 -3.05442 0.804892 0.643463 -3.05334 0.792054 0.636197 0.617788 -10.4305 -1.77799 2.84537 -0.312463 -14.9762 -13.1823 1.57844 8.52276 -54.8775 2.40551 -1.12695 -0.000203893 -2.80432e-06 -5.11596 -35.5139 34.2976 24.9177 4.45183 3.08938 10.468 78.3886 2.79693 6.89764 4.49049e-06 1.2527e-06 18.739 -4.23299 2.38903 -3.03923 -2.61655 -34.5876 -0.169609 0.306644 35.4174 4.71328 -1.78219 -2.80437 4.62519 5.38061e-07 -5.74023 4.1477e-06 -1.83755 1.84807 -0.872136 -0.663094 16.0604 -1.12146 -9.18353 -19.2188 26.926 1.39252e-06 -8.21286 -6.53074e-06 
-40.9509 100.154 173.589 9.1774 -10.1529 -66.159 -11.2005 9.83737 0.679283 -3.07031 0.741242 0.937246 -3.07161 0.725118 0.931153 0.438995 -10.7715 -1.61866 1.90212 -0.90123 -12.8108 -13.5028 1.54963 8.67102 -56.3706 2.8034 2.71393 -0.000213333 -4.688e-06 -5.66108 -35.8199 29.3286 21.6922 4.10632 3.02846 10.7767 77.7816 2.80928 5.71974 7.39274e-06 4.2213e-06 22.6691 -2.69332 2.13162 -5.25771 -1.32192 -35.1349 -0.479457 1.77439 21.9601 3.94175 -3.77628 -3.74168 0.632357 -4.9919e-06 -5.42904 -1.16995e-05 -3.69117 6.13425 -3.01434 -0.286808 12.0175 -0.777735 -8.53494 -19.2323 27.3874 3.64853e-06 -10.8201 2.22589e-05 
-44.4552 99.346 177.311 8.35782 -9.94142 -70.1 -10.8149 10.2182 1.00318 -2.93613 0.880626 1.07519 -2.9398 0.864793 1.06823 0.164712 -11.2393 -1.4695 0.795416 -1.71529 -11.1466 -13.6956 1.55767 8.56287 -57.633 3.69096 5.06294 -0.000198603 -9.99197e-06 -6.1286 -36.9598 26.1763 17.9383 3.72562 2.96183 10.999 76.9573 2.74357 4.47246 -1.36198e-05 1.49275e-05 27.2059 -0.885203 1.71029 -8.00659 0.30598 -34.576 0.270031 2.50809 10.3265 3.44322 -6.16402 -5.4488 -0.964047 -1.19454e-05 -4.7606 -2.96988e-05 -5.20914 10.412 -4.7169 -0.0472929 9.7532 -0.546983 -8.26741 -19.8306 27.3761 -5.85835e-06 -12.7679 -1.76096e-05 
-48.1874 97.806 181.13 7.16548 -9.71303 -72.9288 -10.203 11.2805 1.02847 -2.75801 1.07049 1.06462 -2.76443 1.05701 1.05497 -0.0940406 -11.7205 -1.32665 -0.37657 -2.79648 -9.86535 -13.8482 1.57223 8.42539 -58.144 5.01142 5.95483 -0.000215402 4.52488e-06 -6.55439 -38.1588 25.4599 14.9437 3.38504 2.90278 11.1268 76.1905 2.55811 2.63408 4.91914e-06 1.11071e-05 32.4072 0.728852 0.93761 -11.0279 1.24877 -36.7839 2.08227 2.72155 9.64697 2.60855 -7.77035 -9.19424 -0.87122 -3.34993e-06 -5.86822 -5.10407e-06 -6.78361 13.3161 -5.41651 -0.0579573 11.6092 -0.228931 -7.44757 -22.0811 27.2688 3.66024e-06 -14.3181 -2.03647e-06 
-52.1188 96.1702 184.885 6.11027 -9.68481 -74.3202 -9.89395 12.3947 0.885403 -2.66742 1.21581 0.962594 -2.67576 1.20437 0.949816 -0.2008 -12.0803 -1.2114 -1.07419 -4.02118 -8.94904 -14.0698 1.58893 8.26816 -57.3003 6.40802 5.1504 -0.000204886 5.57942e-07 -6.62712 -38.7161 26.8273 13.7731 3.19221 2.86932 11.1846 75.9538 2.20828 1.56517 -2.91118e-06 -2.84607e-07 34.875 1.56374 -0.299872 -12.5032 0.72991 -38.8332 3.32013 2.55627 14.4283 1.48016 -8.71125 -9.7686 -0.424447 6.74648e-06 -6.945 -8.66535e-06 -8.33512 15.8258 -5.28432 -0.458619 14.4194 0.363496 -7.43298 -22.9526 27.1157 1.71518e-07 -18.0097 -6.78824e-06 
-56.6011 94.6741 188.56 5.55231 -10.0145 -75.0494 -10.2555 12.981 0.829859 -2.76678 1.25219 0.899196 -2.7764 1.24041 0.883663 -0.0960555 -12.1903 -1.16879 -0.756377 -4.8285 -8.48811 -14.388 1.6183 8.00838 -54.7901 7.11764 2.21536 -0.000203775 -4.17396e-06 -6.19936 -38.1966 29.6775 15.1109 3.19738 2.86945 11.2145 76.6936 1.71661 0.940527 -5.71098e-06 5.33961e-06 34.6234 1.79718 -1.22851 -12.2058 -0.454454 -39.2152 3.77079 2.18852 19.5979 -0.254539 -10.3345 -4.75043 -0.0195643 -3.20981e-06 -7.08716 -6.16422e-06 -9.87337 18.1856 -4.67264 -1.2006 16.8422 1.1994 -9.90321 -20.876 27.0031 7.32763e-06 -25.6246 -1.73537e-05 
-61.4972 93.3892 192.019 5.47786 -10.7177 -75.7308 -11.2818 13.029 1.08059 -3.06048 1.15019 0.9611 -3.07267 1.13564 0.941679 0.120411 -12.0407 -1.21831 0.249827 -4.6078 -8.54083 -14.7125 1.67569 7.56016 -51.2687 6.78199 -2.81284 -0.000207425 1.27074e-05 -5.52269 -36.2848 33.5083 18.5007 3.35121 2.89441 11.2496 78.3861 1.23011 0.538109 -6.45734e-06 1.26132e-06 32.4067 1.61472 -1.63225 -10.6284 -1.2176 -39.4368 4.87549 1.63278 25.3668 -2.60758 -12.6784 0.948158 0.61178 -5.71196e-06 -5.9369 5.40137e-06 -11.9971 14.7925 -3.13594 -2.22232 28.1631 2.78897 -9.96859 -11.6212 28.8454 -0.124175 -34.6282 -0.0704258 
-66.5602 92.8125 195.278 5.12657 -11.2398 -76.3438 -11.8979 13.2232 1.26979 -3.36998 1.04845 1.03946 -3.38481 1.03173 1.01472 0.26657 -11.8024 -1.30443 0.814976 -3.49666 -8.89357 -14.9687 1.76264 6.93535 -47.9365 6.08829 -9.16934 -0.000201981 1.74054e-05 -4.84433 -32.9029 37.539 21.7085 3.55372 2.92767 11.2818 80.2972 0.981932 0.663261 1.47388e-06 9.78781e-06 29.5385 0.912793 -1.90406 -8.98668 -1.02067 -39.6163 7.35698 0.724868 32.4875 -4.85256 -11.7564 1.75188 0.720979 3.76527e-06 -4.09486 -2.86037e-05 -12.9968 9.66539 -1.11055 -4.04734 40.3581 4.72808 -3.33248 7.04608 27.1158 -9.37042 -41.5004 -5.65356 
-71.3996 92.9496 198.35 3.90321 -11.2695 -77.5318 -11.3172 14.0405 0.729224 -3.37685 1.19671 0.807249 -3.38276 1.1842 0.781995 0.25544 -11.6513 -1.30863 0.19863 -2.3873 -8.87075 -15.1526 1.85773 6.28443 -45.3894 6.12449 -15.8577 -0.000209571 -3.45225e-06 -4.1079 -27.4323 40.6437 21.0423 3.7346 2.95854 11.2574 81.4652 1.14077 1.23883 5.0524e-06 -7.41019e-07 28.9179 -0.149231 -0.723122 -9.24417 -0.110375 -37.8023 9.76882 -0.451749 38.2803 -5.51024 -8.94999 -1.87489 0.327962 -3.63358e-06 -2.25098 1.56668e-05 -11.9876 5.34606 0.94789 -6.58908 50.4968 9.10021 4.0879 18.9945 16.9037 -6.26466 -31.5221 -2.92507 
-76.0841 93.7118 201.105 2.5501 -11.5343 -79.0398 -10.7939 15.0045 -0.0176293 -3.31539 1.4132 0.468411 -3.30863 1.40697 0.443831 0.151685 -11.5793 -1.13327 -1.25193 -1.95597 -7.81543 -15.1689 1.94552 5.70051 -43.5399 7.20545 -22.095 -0.000203762 -2.99313e-07 -3.51778 -18.9839 41.0619 14.1489 3.89279 2.98739 11.135 82.4241 1.93799 2.39677 4.9641e-06 3.57948e-06 27.8596 -1.52336 0.765196 -9.0149 -0.479684 -33.9658 10.1096 -1.6358 40.8796 -4.31769 -6.56423 -6.72624 0.0323061 -9.16136e-07 -1.89802 3.45995e-06 -9.95122 -0.960846 2.7244 -10.4941 61.1876 14.0335 9.62642 21.0035 4.62738 -7.88026e-06 -15.9867 -2.86594e-06 
-80.8994 95.1525 203.536 1.12045 -12.2493 -79.9478 -10.5944 16.0843 -0.882297 -3.19233 1.68792 0.040977 -3.16981 1.68914 0.0181161 0.0649574 -11.4902 -0.784414 -2.70921 -2.0136 -5.73473 -14.7571 2.03634 5.08025 -42.2696 8.75013 -27.4194 -0.000208155 -1.11009e-05 -4.15228 -9.78586 36.6258 4.08073 4.06314 3.01924 10.935 83.1016 3.06767 3.8732 -1.50297e-05 -3.22194e-06 24.9662 -3.16746 1.33382 -7.0764 -2.19591 -27.9822 8.99855 -2.64817 39.5145 -2.72527 -5.33455 -9.87749 -0.0131598 1.15324e-06 -2.02684 -1.23528e-05 -7.84845 -7.72117 3.51629 -15.0099 69.1175 18.5046 9.29344 15.2053 -1.5776 1.15112e-05 -8.21778 1.42315e-05 
